<?xml version="1.0" standalone="no"?>
<!DOCTYPE svg PUBLIC "-//W3C//DTD SVG 20010904//EN"
 "http://www.w3.org/TR/2001/REC-SVG-20010904/DTD/svg10.dtd">
<svg version="1.0" xmlns="http://www.w3.org/2000/svg"
 width="512.000000pt" height="512.000000pt" viewBox="0 0 512.000000 512.000000"
 preserveAspectRatio="xMidYMid meet">

<g transform="translate(0.000000,512.000000) scale(0.100000,-0.100000)"
fill="#000000" stroke="none">
<path d="M677 5105 c-309 -59 -552 -278 -643 -580 -23 -78 -27 -108 -28 -225
0 -112 3 -149 22 -215 29 -99 78 -204 128 -270 173 -230 590 -758 611 -775 30
-23 80 -26 108 -6 11 8 142 170 290 360 l270 346 315 0 c394 0 360 12 513
-185 59 -77 118 -145 130 -152 82 -46 179 48 135 130 -23 43 -206 273 -248
311 -23 21 -68 50 -99 65 -56 26 -58 26 -334 29 -255 3 -278 5 -272 20 123
315 81 617 -122 864 -101 124 -279 236 -434 273 -95 23 -250 27 -342 10z m313
-211 c170 -50 315 -172 388 -324 53 -112 65 -173 60 -301 -5 -121 -35 -218
-94 -308 -68 -103 -516 -671 -525 -666 -10 7 -447 566 -502 644 -55 77 -96
187 -109 292 -29 230 82 459 285 590 61 39 153 74 235 89 64 12 196 4 262 -16z"/>
<path d="M795 4662 c-96 -8 -181 -50 -247 -120 -141 -151 -138 -379 9 -525
187 -187 498 -130 612 113 23 48 26 68 26 155 0 88 -3 107 -27 157 -65 139
-225 234 -373 220z m119 -226 c105 -62 115 -225 18 -295 -29 -20 -105 -42
-126 -36 -6 2 -23 6 -38 9 -35 8 -85 50 -105 89 -20 40 -21 123 0 162 46 90
163 123 251 71z"/>
<path d="M2325 5110 c-213 -22 -429 -70 -627 -140 -68 -24 -127 -52 -141 -66
-42 -41 -41 -97 0 -138 36 -36 75 -34 202 13 436 160 957 182 1411 59 41 -11
76 -22 78 -23 2 -2 -67 -153 -154 -336 -197 -421 -197 -421 -192 -529 6 -117
33 -167 161 -298 125 -127 158 -144 290 -152 l98 -6 147 -147 146 -147 -130
-132 c-73 -73 -140 -149 -149 -168 -23 -44 -32 -165 -16 -213 7 -20 30 -62 52
-94 45 -67 48 -94 19 -179 -28 -79 -28 -168 0 -233 24 -56 79 -111 210 -212
141 -110 116 -103 425 -109 314 -6 281 3 455 -133 63 -50 116 -91 117 -92 2
-1 -7 -25 -19 -54 -20 -47 -25 -52 -48 -47 -14 2 -320 86 -680 186 -448 124
-662 179 -680 175 -33 -7 -66 -41 -75 -75 -4 -17 49 -225 164 -640 290 -1051
311 -1123 333 -1147 29 -31 78 -39 115 -19 31 16 27 8 340 610 l109 210 210
109 c602 313 594 309 610 340 20 37 12 86 -19 115 -12 11 -62 32 -110 45 -49
14 -90 27 -93 29 -2 3 8 31 22 64 143 320 208 637 208 1014 1 238 -9 336 -50
540 -141 689 -583 1304 -1204 1674 -289 173 -634 291 -980 336 -115 15 -444
21 -555 10z m1375 -487 c550 -307 952 -814 1129 -1425 97 -336 114 -751 45
-1093 -21 -104 -66 -265 -75 -265 -4 0 -47 31 -96 70 -113 89 -183 126 -263
139 -36 6 -163 11 -282 11 l-216 0 -49 37 c-108 82 -181 145 -187 159 -10 26
-7 54 15 128 38 126 27 208 -42 305 -67 94 -67 96 131 295 182 184 196 206
167 262 -8 16 -100 113 -205 216 -221 219 -237 229 -381 236 l-94 5 -78 74
c-85 81 -119 138 -119 198 0 30 42 128 172 406 l172 367 95 -45 c53 -24 125
-60 161 -80z m114 -3347 c-8 -11 -14 -38 -14 -59 0 -37 8 -48 143 -184 l142
-145 -130 -253 c-71 -139 -131 -252 -133 -251 -1 2 -79 279 -173 617 -93 338
-172 623 -175 634 -3 11 75 -61 174 -159 171 -169 180 -181 166 -200z"/>
<path d="M3839 4111 c-40 -40 -40 -89 0 -133 24 -27 36 -33 71 -33 72 0 121
76 89 138 -32 63 -111 77 -160 28z"/>
<path d="M4088 3884 c-58 -31 -65 -97 -17 -165 144 -206 230 -369 289 -548 61
-181 87 -318 99 -525 8 -129 9 -130 40 -158 43 -39 92 -38 132 1 16 16 29 40
30 53 13 438 -135 897 -407 1265 -68 92 -106 110 -166 77z"/>
<path d="M165 3368 c-35 -19 -55 -52 -55 -91 0 -108 156 -135 190 -32 15 44 4
80 -32 110 -31 27 -70 32 -103 13z"/>
<path d="M1065 3211 c-36 -15 -57 -49 -59 -92 -1 -34 5 -46 32 -70 28 -25 40
-29 93 -29 54 0 64 3 90 29 48 49 38 125 -21 156 -31 16 -102 19 -135 6z"/>
<path d="M1515 3211 c-36 -15 -57 -49 -59 -92 -1 -34 5 -46 32 -70 28 -25 40
-29 93 -29 54 0 64 3 90 29 48 49 38 125 -21 156 -31 16 -102 19 -135 6z"/>
<path d="M1965 3211 c-36 -15 -57 -49 -59 -92 -1 -34 5 -46 32 -70 28 -25 40
-29 93 -29 54 0 64 3 90 29 48 49 38 125 -21 156 -31 16 -102 19 -135 6z"/>
<path d="M2404 3201 c-55 -34 -62 -89 -21 -159 23 -39 45 -52 87 -52 63 0 100
45 100 119 0 85 -95 137 -166 92z"/>
<path d="M78 3004 c-15 -8 -32 -23 -37 -33 -34 -62 -48 -529 -23 -721 82 -622
356 -1150 820 -1581 376 -350 872 -579 1412 -651 139 -19 506 -15 655 6 234
34 534 118 575 161 36 38 32 101 -9 137 -39 35 -66 35 -162 2 -244 -84 -615
-136 -844 -119 l-93 7 127 162 c70 88 134 172 144 186 14 21 17 50 17 195 l0
170 118 118 117 117 93 0 c105 0 125 7 148 52 20 39 12 87 -22 119 -22 21 -36
24 -124 27 -179 8 -174 10 -333 -146 -77 -76 -153 -155 -168 -176 l-29 -39 0
-173 0 -174 -161 -205 c-88 -113 -163 -205 -167 -205 -4 0 -46 9 -95 20 -227
50 -549 185 -742 310 -44 29 -84 55 -88 59 -4 4 27 95 69 202 42 107 82 217
90 244 20 71 19 529 0 603 -26 97 -102 194 -187 238 -46 23 -126 44 -172 44
-21 0 -52 6 -70 14 -45 19 -126 93 -133 122 -4 16 8 54 40 123 50 106 66 175
66 287 0 57 4 77 21 98 44 56 43 56 490 56 l411 0 34 34 c38 38 43 72 17 117
-9 15 -28 33 -43 39 -17 7 -166 10 -455 8 l-430 -3 -57 -27 c-32 -15 -78 -47
-102 -73 -62 -63 -86 -132 -92 -265 -5 -99 -8 -111 -51 -202 -57 -123 -65
-187 -32 -273 48 -129 232 -254 372 -255 47 0 113 -27 139 -56 43 -49 48 -83
48 -330 l0 -236 -73 -184 c-39 -101 -75 -184 -79 -184 -14 0 -233 224 -297
303 -160 198 -317 479 -396 707 -47 136 -90 314 -112 459 -20 136 -23 468 -5
599 10 68 9 90 -2 116 -26 61 -81 81 -138 50z"/>
<path d="M2430 2772 c-42 -21 -60 -53 -60 -110 0 -73 38 -121 98 -122 67 0
102 44 102 129 0 87 -70 139 -140 103z"/>
<path d="M2430 2322 c-42 -21 -60 -53 -60 -110 0 -73 38 -121 98 -122 67 0
102 44 102 129 0 87 -70 139 -140 103z"/>
<path d="M2504 1951 c-59 -36 -65 -112 -12 -156 51 -43 169 -29 198 24 26 49
4 114 -47 140 -34 17 -104 13 -139 -8z"/>
<path d="M2954 1951 c-59 -36 -65 -112 -12 -156 51 -43 169 -29 198 24 26 49
4 114 -47 140 -34 17 -104 13 -139 -8z"/>
</g>
</svg>
